<?xml version="1.0" encoding="utf-8"?>
<!-- Generator: Adobe Illustrator 16.0.0, SVG Export Plug-In . SVG Version: 6.00 Build 0)  -->
<!DOCTYPE svg PUBLIC "-//W3C//DTD SVG 1.1//EN" "http://www.w3.org/Graphics/SVG/1.1/DTD/svg11.dtd">
<svg version="1.1" id="Layer_1" xmlns="http://www.w3.org/2000/svg" xmlns:xlink="http://www.w3.org/1999/xlink" x="0px" y="0px"
	 width="73.546px" height="73.499px" viewBox="0 0 73.546 73.499" enable-background="new 0 0 73.546 73.499" xml:space="preserve">
<path fill="#FFFFFF" d="M73.512,58.009c0.154,1.192-0.208,2.229-1.092,3.11L62.066,71.397c-0.467,0.521-1.077,0.959-1.831,1.325
	c-0.751,0.362-1.494,0.597-2.216,0.7c-0.054,0-0.209,0.012-0.471,0.04c-0.255,0.024-0.596,0.036-1.009,0.036
	c-0.987,0-2.582-0.166-4.787-0.504c-2.209-0.337-4.909-1.17-8.099-2.492c-3.196-1.324-6.816-3.307-10.863-5.953
	c-4.047-2.647-8.357-6.285-12.925-10.903c-3.634-3.581-6.644-7.007-9.032-10.278c-2.384-3.268-4.306-6.292-5.76-9.071
	c-1.455-2.772-2.543-5.293-3.272-7.553c-0.725-2.255-1.217-4.202-1.476-5.839c-0.262-1.634-0.366-2.92-0.313-3.854
	c0.051-0.934,0.076-1.451,0.076-1.555c0.104-0.725,0.337-1.469,0.7-2.219c0.366-0.754,0.804-1.361,1.325-1.828L12.472,1.092
	C13.197,0.366,14.027,0,14.961,0c0.675,0,1.271,0.194,1.791,0.585c0.518,0.392,0.959,0.869,1.326,1.44l8.328,15.805
	c0.467,0.833,0.6,1.738,0.391,2.726c-0.208,0.984-0.649,1.817-1.324,2.492l-3.814,3.814c-0.104,0.104-0.193,0.273-0.273,0.506
	c-0.078,0.233-0.118,0.431-0.118,0.585c0.208,1.088,0.675,2.334,1.404,3.739c0.621,1.242,1.584,2.761,2.88,4.55
	c1.297,1.792,3.139,3.857,5.527,6.191c2.334,2.389,4.41,4.244,6.23,5.566c1.813,1.321,3.333,2.299,4.554,2.92
	c1.218,0.625,2.151,0.998,2.805,1.127l0.97,0.197c0.104,0,0.273-0.039,0.506-0.118c0.234-0.079,0.402-0.165,0.507-0.272l4.438-4.515
	c0.934-0.829,2.025-1.246,3.269-1.246c0.884,0,1.583,0.154,2.104,0.471h0.079l15.025,8.87
	C72.653,56.113,73.304,56.967,73.512,58.009z"/>
</svg>
