<?xml version="1.0" encoding="utf-8"?>
<!-- Generator: Adobe Illustrator 16.0.0, SVG Export Plug-In . SVG Version: 6.00 Build 0)  -->
<!DOCTYPE svg PUBLIC "-//W3C//DTD SVG 1.1//EN" "http://www.w3.org/Graphics/SVG/1.1/DTD/svg11.dtd">
<svg version="1.1" id="Layer_1" xmlns="http://www.w3.org/2000/svg" xmlns:xlink="http://www.w3.org/1999/xlink" x="0px" y="0px"
	 width="132.424px" height="132.425px" viewBox="0 0 132.424 132.425" enable-background="new 0 0 132.424 132.425"
	 xml:space="preserve">
<g>
	<circle fill="none" stroke="#303947" stroke-width="5" stroke-miterlimit="10" cx="66.212" cy="66.212" r="63.712"/>
	<g>
		<path fill="#303947" d="M85.382,42.563c-0.246-6.449-1.646-10.711-3.751-13.622h0.006c-1.475-2.309-4.654-4.768-6.611-5.963
			c-12.868-7.851-19.841,2.188-20.643,3.438c-1.182,0.423-8.548,3.664-6.417,15.124c-0.023,0.38-0.042,0.768-0.057,1.165
			c-1.565,0.724-2.737,2.402-2.425,6.205c0.334,4.031,2.359,5.848,4.559,6.317c3.114,7.629,9.292,13.925,16.603,13.925
			c7.294,0,13.461-6.265,16.584-13.869c2.312-0.365,4.51-2.158,4.857-6.372C88.42,44.884,87.084,43.215,85.382,42.563z
			 M66.646,65.607c-7.581,0-13.834-9.255-15.022-18.014c0.567-3.154,2.315-9.943,7.335-14.948c3.86,4.17,10.918,8.973,22.802,8.563
			c0.076,1.072,0.112,2.224,0.112,3.462C81.874,54.153,75.081,65.607,66.646,65.607z"/>
		<path fill="#303947" d="M66.131,48.176c0-0.239-0.016-0.462-0.045-0.662h1.4c-0.029,0.2-0.045,0.423-0.045,0.664
			c0,3.775,3.749,3.771,5.551,3.771c1.801,0,5.552-0.007,5.552-3.782c0-3.777-3.751-3.784-5.552-3.784
			c-1.271,0-3.512,0.021-4.721,1.325H65.3c-1.208-1.305-3.448-1.325-4.719-1.325c-1.803,0-5.55,0.004-5.55,3.781
			c0,3.776,3.747,3.777,5.55,3.777C62.382,51.94,66.131,51.953,66.131,48.176z M72.992,46.161c3.211,0,3.777,0.647,3.777,2.005
			c0,1.356-0.566,2.003-3.777,2.003c-3.212,0-3.776-0.646-3.776-2.003C69.216,46.809,69.78,46.161,72.992,46.161z M56.804,48.166
			c0-1.357,0.564-2.005,3.776-2.005c3.211,0,3.777,0.647,3.777,2.005c0,1.356-0.565,2.003-3.777,2.003
			C57.369,50.169,56.804,49.522,56.804,48.166z"/>
		<path fill="#303947" d="M83.074,68.529l-2.148-0.534L66.691,100.37L52.465,68.004l-2.068,0.525
			c-8.449,2.115-14.347,9.706-14.347,18.416v11.436c0,2.252,1.764,4.047,4.016,4.047h53.263c2.252,0,4.162-1.795,4.162-4.047V86.945
			C97.49,78.235,91.522,70.645,83.074,68.529z M76.879,90.883l4.008-4.333c0.945-1.026,2.566-1.037,3.512-0.01l4.008,4.343H76.879z"
			/>
		<path fill="#303947" d="M66.833,94.45l4.753-12.071l-2.205-2.204c1.393-0.179,2.366-1.538,2.026-2.949l-0.976-4.064
			c-0.261-1.081-1.227-1.854-2.338-1.854H65.48c-1.112,0-2.079,0.773-2.34,1.854l-0.977,4.06c-0.338,1.41,0.635,2.772,2.029,2.951
			l-2.206,2.206L66.833,94.45z"/>
	</g>
</g>
</svg>
