<?xml version="1.0" encoding="utf-8"?>
<!-- Generator: Adobe Illustrator 16.0.0, SVG Export Plug-In . SVG Version: 6.00 Build 0)  -->
<!DOCTYPE svg PUBLIC "-//W3C//DTD SVG 1.1//EN" "http://www.w3.org/Graphics/SVG/1.1/DTD/svg11.dtd">
<svg version="1.1" id="Layer_1" xmlns="http://www.w3.org/2000/svg" xmlns:xlink="http://www.w3.org/1999/xlink" x="0px" y="0px"
	 width="132.424px" height="132.425px" viewBox="0 0 132.424 132.425" enable-background="new 0 0 132.424 132.425"
	 xml:space="preserve">
<g>
	<circle fill="none" stroke="#303947" stroke-width="5" stroke-miterlimit="10" cx="66.175" cy="66.185" r="63.712"/>
	<path fill="#303947" d="M100.167,85.854c0.142,1.104-0.192,2.064-1.01,2.879l-9.58,9.509c-0.431,0.482-0.997,0.887-1.694,1.226
		c-0.695,0.337-1.382,0.552-2.05,0.648c-0.05,0-0.194,0.011-0.437,0.037c-0.235,0.022-0.551,0.034-0.933,0.034
		c-0.915,0-2.39-0.153-4.43-0.466c-2.043-0.313-4.543-1.085-7.493-2.307c-2.956-1.227-6.307-3.061-10.05-5.508
		c-3.745-2.45-7.733-5.816-11.959-10.09c-3.364-3.313-6.148-6.482-8.357-9.508c-2.206-3.024-3.984-5.823-5.329-8.395
		c-1.347-2.564-2.353-4.897-3.028-6.988c-0.671-2.086-1.125-3.887-1.364-5.402c-0.242-1.512-0.339-2.701-0.29-3.565
		c0.048-0.864,0.07-1.343,0.07-1.438c0.096-0.671,0.312-1.359,0.647-2.055c0.34-0.696,0.744-1.259,1.226-1.689l9.584-9.583
		c0.671-0.671,1.438-1.011,2.303-1.011c0.624,0,1.175,0.18,1.658,0.543c0.478,0.36,0.886,0.803,1.225,1.331l7.706,14.622
		c0.432,0.772,0.555,1.61,0.362,2.523c-0.192,0.91-0.603,1.682-1.226,2.306l-3.529,3.528c-0.096,0.097-0.18,0.253-0.253,0.469
		c-0.072,0.216-0.108,0.399-0.108,0.542c0.192,1.007,0.624,2.159,1.299,3.459c0.574,1.149,1.465,2.556,2.664,4.211
		c1.2,1.657,2.904,3.568,5.114,5.728c2.16,2.21,4.08,3.927,5.766,5.15c1.677,1.223,3.083,2.127,4.213,2.702
		c1.126,0.576,1.989,0.923,2.595,1.042l0.896,0.184c0.097,0,0.253-0.036,0.469-0.109c0.217-0.074,0.373-0.153,0.47-0.254
		l4.106-4.177c0.863-0.767,1.874-1.151,3.023-1.151c0.817,0,1.465,0.143,1.947,0.435h0.073l13.902,8.206
		C99.373,84.101,99.975,84.89,100.167,85.854z"/>
</g>
</svg>
