<?xml version="1.0" encoding="utf-8"?>
<!-- Generator: Adobe Illustrator 16.0.0, SVG Export Plug-In . SVG Version: 6.00 Build 0)  -->
<!DOCTYPE svg PUBLIC "-//W3C//DTD SVG 1.1//EN" "http://www.w3.org/Graphics/SVG/1.1/DTD/svg11.dtd">
<svg version="1.1" id="Layer_1" xmlns="http://www.w3.org/2000/svg" xmlns:xlink="http://www.w3.org/1999/xlink" x="0px" y="0px"
	 width="132.424px" height="132.425px" viewBox="0 0 132.424 132.425" enable-background="new 0 0 132.424 132.425"
	 xml:space="preserve">
<g>
	<g>
		<path fill="#303947" d="M66.006,18.229c-19.935,0-35.771,16.021-35.771,35.785c0,8.38,2.98,16.005,7.707,22.18
			c7.169,9.366,28.063,37.92,28.063,37.92s20.916-28.554,28.086-37.92c4.727-6.175,7.705-13.8,7.705-22.18
			C101.797,34.251,85.94,18.229,66.006,18.229z M66.006,80.531c-14.453,0-26.516-11.896-26.516-26.517
			c0-14.621,12.063-26.518,26.516-26.518c14.453,0,26.516,11.896,26.516,26.518C92.521,68.635,80.459,80.531,66.006,80.531z"/>
	</g>
	<circle fill="none" stroke="#303947" stroke-width="5" stroke-miterlimit="10" cx="66.212" cy="66.213" r="63.712"/>
</g>
</svg>
