<?xml version="1.0" encoding="utf-8"?>
<!-- Generator: Adobe Illustrator 16.0.0, SVG Export Plug-In . SVG Version: 6.00 Build 0)  -->
<!DOCTYPE svg PUBLIC "-//W3C//DTD SVG 1.1//EN" "http://www.w3.org/Graphics/SVG/1.1/DTD/svg11.dtd">
<svg version="1.1" id="Layer_1" xmlns="http://www.w3.org/2000/svg" xmlns:xlink="http://www.w3.org/1999/xlink" x="0px" y="0px"
	 width="143.665px" height="192.396px" viewBox="0 0 143.665 192.396" enable-background="new 0 0 143.665 192.396"
	 xml:space="preserve">
<g>
	<g>
		<path fill="#394551" d="M71.856,0v20.507c29,0,53.205,23.87,53.205,53.207c0,29.336-24.205,53.206-53.205,53.206v65.477
			c0,0,41.953-57.295,56.34-76.088c9.484-12.391,15.469-27.689,15.469-44.505C143.665,32.147,111.856,0,71.856,0z"/>
	</g>
	<path fill="#29ABE2" d="M71.856,20.507c-29.339,0-53.206,23.869-53.206,53.207c0,29.336,23.867,53.206,53.206,53.206
		c29.337,0,53.206-23.869,53.206-53.206C125.063,44.376,101.193,20.507,71.856,20.507z M71.856,120.72
		c-25.919,0-47.007-21.086-47.007-47.006s21.088-47.008,47.007-47.008s47.007,21.088,47.007,47.008S97.775,120.72,71.856,120.72z"/>
	<g>
		<path fill="#303947" d="M71.856,0v20.507c-29,0-53.205,23.87-53.205,53.207c0,29.336,24.205,53.206,53.205,53.206v65.477
			c0,0-42.049-57.295-56.436-76.088C5.937,103.917,0,88.619,0,71.803C0,32.147,31.856,0,71.856,0z"/>
	</g>
</g>
</svg>
